<svg width="500" height="500" xmlns="http://www.w3.org/2000/svg">
<!-- Created with Method Draw - http://github.com/duopixel/Method-Draw/ -->
<g>
	<title>background</title>
	<rect fill="#222" id="canvas_background" height="500" width="500" y="-1" x="-1"/>
	<g display="none" overflow="visible" y="0" x="0" height="100%" width="100%" id="canvasGrid">
		<rect fill="url(#gridpattern)" stroke-width="0" y="0" x="0" height="100%" width="100%"/>
	</g>
</g>
<g>
<title>Layer 1</title>
	<polygon stroke="#fff" transform="translate(0,50)" points="0 50, 100 100, 200 50, 100 0"/>
	<polygon stroke="#fff" transform="translate(0,40)" points="0 50, 100 100, 200 50, 100 0"/>
	<polygon stroke="#fff" transform="translate(0,30)" points="0 50, 100 100, 200 50, 100 0"/>
	<polygon stroke="#fff" transform="translate(0,20)" points="0 50, 100 100, 200 50, 100 0"/>
	<polygon stroke="#fff" transform="translate(0,10)" points="0 50, 100 100, 200 50, 100 0"/>
	<polygon stroke="#fff" transform="translate(0,0)" points="0 50, 100 100, 200 50, 100 0"/>
</g>
</svg>
