<svg width="500" height="500" xmlns="http://www.w3.org/2000/svg">
<!-- Created with Method Draw - http://github.com/duopixel/Method-Draw/ -->
<g>
	<title>background</title>
	<rect fill="#222" id="canvas_background" height="500" width="500" y="-1" x="-1"/>
	<g display="none" overflow="visible" y="0" x="0" height="100%" width="100%" id="canvasGrid">
		<rect fill="url(#gridpattern)" stroke-width="0" y="0" x="0" height="100%" width="100%"/>
	</g>
</g>
<g>
<title>Layer 1</title>
	<polygon stroke="#fff" points="0 180, 0 200, 200 200, 200 0, 180 0"/>
	<polygon stroke="#fff" points="0 0, 0 200, 200 0, 200 180, 180 200, 0, 200"/>
	<polygon stroke="#fff" points="0 0, 0 200, 200 0, 200 160, 160 200, 0, 200"/>
	<polygon stroke="#fff" points="0 0, 0 200, 200 0, 200 160, 160 200, 0, 200"/>
	<polygon stroke="#fff" points="0 0, 0 200, 200 0, 200 140, 140 200, 0, 200"/>
	<polygon stroke="#fff" points="0 0, 0 200, 200 0, 200 120, 120 200, 0, 200"/>
	<polygon stroke="#fff" points="0 0, 0 200, 200 0, 200 100, 100 200, 0, 200"/>
	<polygon stroke="#fff" points="0 0, 0 200, 200 0, 200 80, 80 200, 0, 200"/>
	<polygon stroke="#fff" points="0 0, 0 200, 200 0, 200 60, 60 200, 0, 200"/>
	<polygon stroke="#fff" points="0 0, 0 200, 200 0, 200 40, 40 200, 0, 200"/>
	<polygon stroke="#fff" points="0 0, 0 200, 200 0, 200 20, 20 200, 0, 200"/>
	<polygon stroke="#fff" points="0 180, 0 200, 200 0, 180 0"/>
	<polygon stroke="#fff" points="0 160, 0 180, 180 0, 160 0"/>
	<polygon stroke="#fff" points="0 140, 0 160, 160 0, 140 0"/>
	<polygon stroke="#fff" points="0 120, 0 140, 140 0, 120 0"/>
	<polygon stroke="#fff" points="0 100, 0 120, 120 0, 100 0"/>
	<polygon stroke="#fff" points="0 80, 0 100, 100 0, 80 0"/>
	<polygon stroke="#fff" points="0 60, 0 80, 80 0, 60 0"/>
	<polygon stroke="#fff" points="0 40, 0 60, 60 0, 40 0"/>
	<polygon stroke="#fff" points="0 20, 0 40, 40 0, 20 0"/>
	<polygon stroke="#fff" points="0 0, 0 20, 20 0"/>
</g>
</svg>
